<svg xmlns="http://www.w3.org/2000/svg" viewBox="0 0 1156 214" width="1156" height="214"><style></style><path fill-rule="evenodd" d="m320.7 118.2c2.9 5.4 4.3 11.6 4.3 18.4 0 7.6-1.2 14.2-3.8 20-2.6 5.7-6.2 10.5-11 14.4-4.7 3.8-10.4 6.7-17 8.6-6.6 1.9-13.9 2.8-22 2.8h-69v-153h66.8q15.6 0 26.1 4.5c7 3 12.4 7.3 16.1 12.9 3.7 5.7 5.6 12.5 5.6 20.7 0 8.4-2.2 15.6-6.7 21.4-3.1 4.1-7.2 7.3-12.2 9.7 4 1.5 7.6 3.5 10.9 5.9 5 3.7 9 8.3 11.9 13.7zm-86.9-26.9h31.2c4.1 0 7.5-0.7 10.4-2.1 2.9-1.4 5.1-3.3 6.7-5.9 1.6-2.6 2.4-5.5 2.4-8.9 0-5.2-1.8-9.3-5.4-12.2-3.6-2.9-8.9-4.4-15.9-4.4h-29.4zm58.3 43.9c0-3.8-1-7-2.9-9.6-1.9-2.6-4.6-4.6-8.1-5.9-3.5-1.3-7.7-2-12.5-2h-34.9v36.3h36c7.1 0 12.5-1.6 16.5-4.9 4-3.3 6-7.9 5.9-13.9z"></path><path d="m345.3 29.4h31.2v153h-31.2z"></path><path fill-rule="evenodd" d="m482 81.5v-14.7h31.2v115.5h-31.4v-15c-2.4 3-5.2 5.7-8.5 8-3.9 2.8-8.3 5-13.1 6.7-4.9 1.7-10 2.5-15.4 2.5-9.5 0-18.2-2.7-26-7.9-7.9-5.2-14.1-12.4-18.6-21.5-4.5-9.1-6.8-19.3-6.8-30.7 0-11.8 2.3-22.3 6.9-31.3 4.6-9 10.9-16.1 18.8-21.2 7.9-5 16.9-7.6 27-7.6 5.8 0 11.1 0.8 15.8 2.5 4.7 1.7 8.8 4 12.5 6.9q4.3 3.5 7.5 7.8zm-3.1 60.2c2.5-5 3.7-10.7 3.7-17.3 0-6.7-1.2-12.5-3.7-17.5q-3.7-7.5-10.2-11.7c-4.4-2.9-9.4-4.3-15.3-4.3-5.8 0-10.8 1.5-15.2 4.3q-6.6 4.2-10.2 11.7c-2.4 5-3.6 10.8-3.6 17.5 0 6.6 1.2 12.3 3.6 17.3q3.6 7.5 10.2 11.7c4.4 2.9 9.5 4.3 15.2 4.3 5.9 0 11-1.5 15.3-4.3q6.4-4.2 10.2-11.7z"></path><path d="m577.3 95.7c4.7-2.8 10-4.3 16-4.3 3.8 0 7.5 0.7 11.1 2 3.6 1.3 6.9 3.1 10 5.5 3.1 2.3 5.6 4.9 7.7 7.6l16.9-20.5c-4.8-6.7-11.5-12-20.1-15.8-8.6-3.9-18-5.8-28.4-5.8-11.1 0-21.1 2.6-29.9 7.9-8.8 5.2-15.7 12.4-20.8 21.5-5.1 9.1-7.6 19.4-7.6 30.9 0 11.2 2.5 21.4 7.6 30.5 5.1 9.1 12 16.3 20.8 21.5 8.8 5.2 18.7 7.9 29.9 7.9 9.8 0 19.1-1.9 28-5.8 8.9-3.9 15.7-8.9 20.5-15.2l-16.9-20.5c-2.6 2.9-5.4 5.5-8.3 7.6-2.9 2.2-6.1 3.8-9.6 4.9-3.4 1.1-7.1 1.6-10.9 1.6-5.7 0-10.9-1.5-15.6-4.4-4.7-2.9-8.4-6.8-11.2-11.8-2.8-5-4.2-10.5-4.2-16.6 0-6.3 1.3-11.9 4-16.9 2.6-5 6.3-8.9 11-11.8z"></path><path d="m729.9 66.8l-44.1 44.6v-82h-31.2v153h31.2v-36.4l10.3-9.6 37.1 46h37.6l-53.8-65.4 54-50.2z"></path><path fill-rule="evenodd" d="m906.4 118.2c2.9 5.4 4.3 11.6 4.3 18.4 0 7.6-1.2 14.2-3.8 20-2.6 5.7-6.2 10.5-11 14.4-4.7 3.8-10.4 6.7-17 8.6-6.6 1.9-13.9 2.8-22 2.8h-69v-153h66.8q15.6 0 26.1 4.5c7 3 12.4 7.3 16.1 12.9 3.7 5.7 5.6 12.5 5.6 20.7 0 8.4-2.2 15.6-6.7 21.4-3.1 4.1-7.2 7.3-12.2 9.7 4 1.5 7.6 3.5 10.9 5.9 5.1 3.7 9 8.3 11.9 13.7zm-86.9-26.9h31.2c4.1 0 7.5-0.7 10.4-2.1 2.9-1.4 5.1-3.3 6.7-5.9 1.6-2.6 2.4-5.5 2.4-8.9 0-5.2-1.8-9.3-5.4-12.2-3.6-2.9-8.9-4.4-15.9-4.4h-29.4zm58.4 43.9c0-3.8-1-7-2.9-9.6-1.9-2.6-4.6-4.6-8.1-5.9-3.5-1.3-7.7-2-12.5-2h-34.9v36.3h36c7.1 0 12.5-1.6 16.5-4.9 4-3.3 5.9-7.9 5.9-13.9z"></path><path d="m1007.3 135.8c0 3.4-0.6 6.4-1.8 9.2q-1.8 4.2-4.8 7.2c-2.1 2-4.5 3.6-7.4 4.7-2.9 1.1-6 1.6-9.6 1.6-6.9 0-12.3-2.3-16.1-6.9-3.9-4.6-5.8-11-5.8-19.1v-65.8h-31.2v71.5c0 9.6 1.6 17.9 4.9 24.8 3.3 6.9 8 12.2 14.2 16 6.2 3.7 13.4 5.6 21.7 5.6 6.6 0 12.7-1.2 18.4-3.7 5.7-2.5 10.7-5.9 14.8-10.3 1.3-1.3 2.4-2.7 3.5-4.2l0.6 16h29.7v-115.6h-31.2v69z"></path><path d="m1065.7 29.4h31.2v153h-31.2z"></path><path d="m1124.2 29.4h31.2v153h-31.2z"></path><path d="m111.1 104l-42.6-21.6 22.5-13.5c17.8-10.7 16.8-34.1-1.9-43.5l-47.7-24.2c-3-1.5-6.2 1.6-4.3 4.1l25 32.8c1.9 2.5 1 5.9-1.9 7.5l-58.1 24.3c-1 0.5-1.6 1.4-1.6 2.4v45.6c0 2.3 2.9 3.6 5 2.3l55.6-33.5 22.9 30c1.9 2.5 1 5.9-1.9 7.5l-80.1 38.3c-1 0.5-1.6 1.4-1.6 2.4v45.6c0 2.3 2.9 3.6 5 2.3l107.6-65.3c17.8-10.7 16.8-34.1-1.9-43.5z"></path></svg>