<svg width="1014" height="251" viewBox="0 0 1014 251" fill="none" xmlns="http://www.w3.org/2000/svg">
<g clip-path="url(#clip0_368_1435)">
<path d="M42.5828 72.5337V179.557H0V72.5337H42.5828Z" fill="#34E834"/>
<path d="M65.7369 59.8921C72.0455 47.8332 80.9714 38.4464 92.5819 31.7317C104.159 25.0171 117.481 21.6255 132.547 21.6255C151.674 21.6255 167.748 26.8328 180.767 37.2473C193.787 47.6619 202.21 61.8448 205.968 79.7277H160.13C157.379 73.801 153.587 69.3132 148.721 66.1957C143.856 63.0781 138.252 61.5365 131.876 61.5365C122.011 61.5365 114.158 65.1336 108.32 72.2937C102.447 79.4537 99.528 89.046 99.528 101.002C99.528 112.958 102.447 122.791 108.32 129.951C114.192 137.111 122.044 140.708 131.876 140.708C138.252 140.708 143.856 139.166 148.721 136.049C153.587 132.931 157.379 128.443 160.13 122.516H205.968C202.21 140.399 193.787 154.582 180.767 164.997C167.748 175.411 151.641 180.619 132.547 180.619C117.481 180.619 104.159 177.261 92.5819 170.512C81.005 163.798 72.0455 154.411 65.7369 142.352C59.4284 130.293 56.2741 116.521 56.2741 100.968C56.2741 85.4146 59.4284 71.8826 65.7369 59.8236V59.8921Z" fill="#34E834"/>
<path d="M42.5828 23.2V64.5156L0 23.2H42.5828Z" fill="#34E834"/>
<path d="M339.454 22.9272V53.4172H298.919V179.111H261.671V53.383H221.135V22.9272H339.454Z" fill="black"/>
<path d="M400.895 59.515C407.439 55.5753 414.687 53.6226 422.673 53.6226V93.8762H412.439C403.144 93.8762 396.164 95.9317 391.533 100.008C386.869 104.085 384.554 111.245 384.554 121.488V179.111H347.306V54.9586H384.554V75.6507C388.916 68.8333 394.352 63.4547 400.895 59.515Z" fill="black"/>
<path d="M429.351 83.1881C434.083 73.5615 440.492 66.1274 448.646 60.9544C456.767 55.7471 465.86 53.1777 475.894 53.1777C484.45 53.1777 491.967 54.9592 498.443 58.522C504.92 62.0849 509.886 66.7441 513.376 72.5337V54.9592H550.623V179.077H513.376V161.503C509.752 167.292 504.685 171.952 498.242 175.514C491.766 179.077 484.249 180.859 475.692 180.859C465.827 180.859 456.8 178.221 448.68 172.945C440.559 167.669 434.116 160.201 429.385 150.472C424.653 140.776 422.304 129.54 422.304 116.761C422.304 103.983 424.653 92.8147 429.385 83.1881H429.351ZM505.591 94.5619C500.423 89.0805 494.148 86.3399 486.732 86.3399C479.316 86.3399 473.041 89.0463 467.874 94.4591C462.706 99.8719 460.156 107.34 460.156 116.83C460.156 126.319 462.74 133.856 467.874 139.406C473.041 144.956 479.316 147.765 486.732 147.765C494.148 147.765 500.423 145.024 505.591 139.543C510.758 134.062 513.342 126.559 513.342 117.07C513.342 107.58 510.758 100.077 505.591 94.5961V94.5619Z" fill="black"/>
<path d="M566.394 83.1879C571.126 73.5613 577.535 66.1272 585.689 60.9542C593.81 55.7469 602.903 53.1776 612.937 53.1776C620.923 53.1776 628.238 54.8905 634.849 58.2821C641.46 61.7079 646.661 66.2985 650.419 72.0882V14.4656H687.666V179.077H650.419V161.297C646.929 167.224 641.963 171.986 635.487 175.549C629.01 179.111 621.494 180.893 612.937 180.893C602.903 180.893 593.843 178.255 585.689 172.979C577.569 167.703 571.126 160.235 566.394 150.506C561.663 140.811 559.314 129.574 559.314 116.795C559.314 104.017 561.663 92.8488 566.394 83.2222V83.1879ZM642.634 94.5617C637.466 89.0804 631.191 86.3397 623.775 86.3397C616.359 86.3397 610.085 89.0461 604.917 94.4589C599.749 99.8717 597.199 107.34 597.199 116.83C597.199 126.319 599.783 133.856 604.917 139.406C610.085 144.956 616.359 147.765 623.775 147.765C631.191 147.765 637.466 145.024 642.634 139.543C647.802 134.062 650.385 126.559 650.385 117.069C650.385 107.58 647.802 100.077 642.634 94.596V94.5617Z" fill="black"/>
<path d="M740.987 54.959V179.077H703.74V54.959H740.987Z" fill="black"/>
<path d="M865.312 67.7364C873.802 77.1574 878.064 90.1071 878.064 106.551V179.076H841.018V111.69C841.018 103.399 838.904 96.9245 834.709 92.3339C830.481 87.7433 824.844 85.448 817.73 85.448C810.616 85.448 804.945 87.7433 800.75 92.3339C796.522 96.9245 794.442 103.399 794.442 111.69V179.076H757.195V54.958H794.442V71.402C798.2 65.9207 803.301 61.5699 809.676 58.3838C816.052 55.1978 823.267 53.5876 831.253 53.5876C845.481 53.5876 856.856 58.3153 865.346 67.7021L865.312 67.7364Z" fill="black"/>
<path d="M961.82 58.522C968.297 62.0849 973.263 66.7441 976.753 72.5337V54.9592H1014V178.872C1014 190.28 1011.79 200.626 1007.36 209.91C1002.93 219.16 996.182 226.559 987.088 232.041C977.994 237.522 966.719 240.263 953.196 240.263C935.177 240.263 920.58 235.912 909.406 227.245C898.231 218.577 891.822 206.827 890.245 191.993H927.056C928.23 196.72 930.982 200.489 935.344 203.23C939.707 205.97 945.076 207.341 951.485 207.341C959.169 207.341 965.31 205.079 969.907 200.557C974.471 196.035 976.786 188.807 976.786 178.872V161.297C973.162 167.087 968.129 171.78 961.753 175.412C955.344 179.043 947.894 180.859 939.304 180.859C929.271 180.859 920.211 178.221 912.056 172.945C903.936 167.669 897.493 160.201 892.762 150.472C888.03 140.776 885.681 129.54 885.681 116.761C885.681 103.983 888.03 92.8147 892.762 83.1881C897.493 73.5615 903.902 66.1274 912.056 60.9544C920.177 55.7471 929.271 53.1777 939.304 53.1777C947.861 53.1777 955.377 54.9592 961.854 58.522H961.82ZM969.001 94.5619C963.834 89.0805 957.559 86.3399 950.143 86.3399C942.727 86.3399 936.452 89.0463 931.284 94.4591C926.116 99.8719 923.566 107.34 923.566 116.83C923.566 126.319 926.15 133.856 931.284 139.406C936.452 144.956 942.727 147.765 950.143 147.765C957.559 147.765 963.834 145.024 969.001 139.543C974.169 134.062 976.753 126.559 976.753 117.07C976.753 107.58 974.169 100.077 969.001 94.5961V94.5619Z" fill="black"/>
<path d="M706.458 36.1501C702.331 32.2104 700.25 27.3799 700.25 21.5903C700.25 15.8006 702.331 10.7304 706.458 6.79064C710.586 2.85092 715.921 0.898193 722.464 0.898193C729.008 0.898193 734.108 2.85092 738.269 6.79064C742.397 10.7304 744.477 15.6636 744.477 21.5903C744.477 27.517 742.397 32.2446 738.269 36.1501C734.142 40.0898 728.874 42.0425 722.464 42.0425C716.055 42.0425 710.586 40.0898 706.458 36.1501Z" fill="#34E834"/>
</g>
<defs>
<clipPath id="clip0_368_1435">
<rect width="1014" height="245.578" fill="white" transform="translate(0 0.898193)"/>
</clipPath>
</defs>
</svg>
