<svg viewBox="0 0 258 58" role="img" fill="none" xmlns="http://www.w3.org/2000/svg"><title>DailyForex</title><path d="M0.686172 3.59538V5.61992C4.66517 5.98802 5.14747 6.41747 5.14747 11.6322V34.945C5.14747 40.0984 4.60489 40.6506 0.26416 40.9573V42.9818H13.7686C20.5812 42.9818 26.0071 41.4481 30.0464 37.9512C34.0254 34.5156 36.5575 29.3009 36.5575 21.7549C36.5575 16.1721 34.568 11.8162 31.9756 8.9328C28.5392 5.12912 23.3544 3.59538 16.2404 3.59538H0.686172ZM12.8643 9.73035C12.8643 7.82851 12.9849 6.96961 13.4069 6.60151C13.8289 6.29477 14.673 5.98802 16.1802 5.98802C19.2548 5.98802 21.9678 7.03096 24.1382 9.48495C26.4291 12.123 27.9363 16.6629 27.9363 22.8592C27.9363 34.6383 22.8721 40.4665 16.8433 40.4665C13.8289 40.4665 12.8643 39.0555 12.8643 34.945V9.73035Z" class="daily"></path><path d="M65.6675 40.4052L65.125 38.5033C64.6426 38.6874 64.0398 38.8714 63.3163 38.8714C62.2311 38.8714 61.3871 38.0125 61.3871 35.3131V24.3316C61.3871 21.4481 60.8445 18.9941 58.7947 17.215C57.2875 15.9267 55.4186 15.1291 52.9468 15.1291C49.3898 15.6813 45.652 17.8285 43.3007 19.4849C41.9744 20.4665 41.3112 21.3254 41.3112 22.307C41.3112 24.0248 43.5419 25.2518 45.1094 25.2518C46.1946 25.2518 46.918 24.761 47.2798 23.2886C47.7018 21.3254 48.1841 19.9757 48.7869 19.1782C49.4501 18.3193 50.053 18.0125 50.9573 18.0125C52.7057 18.0125 54.2129 19.853 54.2129 23.4113V25.9267C52.8262 27.215 47.9429 28.8714 45.1697 29.9757C42.2156 31.2027 40.8892 32.9205 40.8892 36.0493C40.8892 39.669 43.783 43.718 48.6061 43.718C50.053 43.718 52.7659 41.6935 54.5746 40.3438C54.8157 41.0187 55.1775 41.6935 56.0215 42.4297C56.7449 43.1659 57.8904 43.718 59.3373 43.718L65.6675 40.4052ZM54.2129 38.1966C53.5497 38.8101 52.9468 39.0555 52.1028 39.0555C50.5353 39.0555 48.4855 37.4604 48.4855 34.5156C48.4855 32.3684 49.3295 31.3868 51.0176 30.3438C52.1028 29.669 53.188 28.9941 54.2129 28.3806V38.1966Z" class="daily"></path><path d="M73.7174 11.6935C76.0686 11.6935 77.817 9.73035 77.817 7.46041C77.817 5.06778 76.0686 3.28864 73.7777 3.28864C71.6073 3.28864 69.7384 5.06778 69.7384 7.46041C69.7384 9.73035 71.6073 11.6935 73.7174 11.6935ZM81.4342 42.9818V41.08C78.1184 40.7119 77.817 40.4052 77.817 36.2947V15.1291C74.3203 16.1721 70.6427 16.9696 67.3269 17.3991V19.1168C70.1604 19.7303 70.4618 19.853 70.4618 23.6567V36.2947C70.4618 40.4665 70.1001 40.7119 66.9651 41.08V42.9818H81.4342Z" class="daily"></path><path d="M97.6639 42.9818V41.08C94.3481 40.7119 94.0466 40.4665 94.0466 36.3561V0.466553C90.6705 1.44815 86.5709 2.24569 83.3154 2.61379V4.27023C86.5709 4.69968 86.6915 4.94508 86.6915 8.62606V36.3561C86.6915 40.2825 86.4504 40.6506 83.1345 41.08V42.9818H97.6639Z" class="daily"></path><path d="M125.501 15.8653H115.373V17.7058C118.327 18.1352 118.749 18.8101 118.146 21.08C117.001 25.1291 115.554 29.9757 114.047 34.4543L109.947 21.0187C109.284 18.7487 109.284 18.0739 112.178 17.7058V15.8653H98.1307V17.7058C100.602 18.0125 101.205 18.7487 102.291 21.4481C103.496 24.3929 106.45 32.7365 109.465 42.0003C109.827 43.0432 110.007 43.9021 109.887 44.761C109.706 45.4972 109.284 46.3561 108.621 47.7671C107.716 49.3622 106.45 50.3438 104.461 51.5094C103.255 52.2456 102.833 52.8591 102.833 53.8407C102.833 55.7426 105.245 57.4604 106.933 57.4604C108.018 57.4604 108.741 57.0309 109.163 55.6199C109.947 52.6751 111.093 48.7487 114.65 38.8714C117.845 30.2211 119.473 25.6813 120.919 22.123C122.246 18.8101 122.728 18.1966 125.501 17.7058V15.8653Z" class="daily"></path><path d="M153.09 12.4297C152.789 8.93276 152.548 4.57693 152.487 3.59534H126.142V5.55853C130 5.92662 130.543 6.41742 130.543 11.5708V34.8837C130.543 40.0984 130 40.5892 126.142 40.9573V42.9818H143.263V40.9573C138.681 40.5892 138.259 40.037 138.259 34.8223V24.5769H142.902C147.664 24.5769 148.207 25.0064 148.93 29.2395H150.92V17.3377H148.93C148.207 21.264 147.664 21.6935 142.902 21.6935H138.259V8.19656C138.259 6.23337 138.561 6.04932 140.43 6.04932H143.082C146.278 6.04932 147.906 6.41742 148.991 7.76711C149.955 8.99411 150.498 10.5278 151.101 12.7364L153.09 12.4297Z" class="forex"></path><path d="M168.891 15.1291C162.742 15.1291 155.688 19.9143 155.688 30.037C155.688 36.6628 159.908 43.718 168.65 43.718C175.282 43.718 181.492 38.81 181.492 28.8714C181.492 21.5708 176.608 15.1291 168.891 15.1291ZM168.047 17.4604C171.423 17.4604 173.353 22.4297 173.353 30.6505C173.353 39.6689 171.243 41.3867 169.193 41.3867C165.756 41.3867 163.827 35.5585 163.827 27.8898C163.827 20.8346 165.817 17.4604 168.047 17.4604Z" class="forex"></path><path d="M195.148 21.4481V15.0677C192.013 16.172 188.456 16.9696 184.838 17.399V19.0554C187.491 19.7303 187.793 20.037 187.793 23.2886V36.7855C187.793 40.4051 187.431 40.7732 184.356 41.08V42.9818H199.549V41.08C195.449 40.7732 195.148 40.5278 195.148 36.7855V24.6383C196.112 22.307 197.077 21.9389 198.102 21.9389C199.006 21.9389 199.669 22.3683 200.574 23.1659C200.996 23.534 201.538 23.6567 202.322 23.3499C203.769 22.7978 205.216 21.08 205.216 18.9327C205.216 16.8469 203.709 15.1291 201.659 15.1291C199.247 15.1291 197.197 17.7058 195.268 21.4481H195.148Z" class="forex"></path><path d="M227.592 35.8039C225.663 37.5217 223.855 38.3192 221.383 38.3192C217.404 38.3192 213.967 34.8223 213.847 28.2579C219.333 28.0125 226.447 27.4603 227.291 27.2763C228.678 27.0309 228.919 26.3561 228.919 25.0064C228.919 20.037 225.06 15.1291 219.695 15.1291H219.634C216.379 15.1291 213.304 16.9696 211.013 19.4235C208.903 21.5708 206.733 25.4972 206.733 30.6505C206.733 37.583 211.013 43.718 218.61 43.718C221.081 43.718 225.422 42.3683 228.678 37.3376L227.592 35.8039ZM218.61 17.5217C220.78 17.5217 221.986 20.7732 221.986 23.8407C221.986 24.945 221.684 25.2518 220.659 25.2518C218.489 25.3131 216.439 25.3745 214.088 25.4358C214.45 20.7732 216.499 17.5217 218.61 17.5217Z" class="forex"></path><path d="M257.385 42.9818V41.08C254.974 40.8959 253.587 40.1597 251.658 36.6014L246.413 27.0922C248.342 24.2088 249.548 22.4297 250.935 20.7119C252.743 18.5646 253.527 18.0739 256.361 17.7058V15.8653H246.112V17.7058C248.282 18.0125 248.764 18.5646 247.86 20.2211C247.197 21.4481 246.413 23.1045 245.147 25.0064L242.615 20.2211C241.771 18.5646 241.891 18.0739 243.881 17.7058V15.8653H230.557V17.7058C233.391 18.0739 234.175 18.81 235.742 21.7548L240.565 30.7732C238.817 33.4113 237.249 35.8652 235.983 37.5217C234.054 39.9757 232.788 40.6505 229.954 41.08V42.9818H240.565V41.08C238.214 40.7119 237.973 40.1597 238.877 38.3806C239.842 36.4787 240.746 34.5769 241.891 32.9205L244.604 38.3192C245.509 40.1597 245.448 40.8346 243.097 41.08V42.9818H257.385Z" class="forex"></path></svg>