<svg id="static-header-svg-sprite" width="0" height="0" style="display:none" xmlns="http://www.w3.org/2000/svg"><symbol id="header-blue-chevron-down"><path d="M11.8948 15.6052C12.2296 15.9399 12.7731 15.9399 13.1078 15.6052L18.249 10.464C18.5837 10.1293 18.5837 9.58574 18.249 9.25103C17.9143 8.91632 17.3707 8.91632 17.036 9.25103L12.5 13.787L7.96402 9.25371C7.62931 8.919 7.08574 8.919 6.75103 9.25371C6.41632 9.58842 6.41632 10.132 6.75103 10.4667L11.8922 15.6078L11.8948 15.6052Z" fill="#15418F"></path></symbol><symbol id="location-icon"><g clip-path="url(#clip0_590_2001)"><path d="M8 1.33337C5.42 1.33337 3.33333 3.42004 3.33333 6.00004C3.33333 9.50004 8 14.6667 8 14.6667C8 14.6667 12.6667 9.50004 12.6667 6.00004C12.6667 3.42004 10.58 1.33337 8 1.33337ZM4.66667 6.00004C4.66667 4.16004 6.16 2.66671 8 2.66671C9.84 2.66671 11.3333 4.16004 11.3333 6.00004C11.3333 7.92004 9.41333 10.7934 8 12.5867C6.61333 10.8067 4.66667 7.90004 4.66667 6.00004Z" fill="#15418F"></path><path d="M8 7.66671C8.92048 7.66671 9.66667 6.92052 9.66667 6.00004C9.66667 5.07957 8.92048 4.33337 8 4.33337C7.07953 4.33337 6.33333 5.07957 6.33333 6.00004C6.33333 6.92052 7.07953 7.66671 8 7.66671Z" fill="#15418F"></path></g><defs><clipPath id="clip0_590_2001"><rect width="16" height="16" fill="white"></rect></clipPath></defs></symbol><symbol id="right-align-icon"><g clip-path="url(#clip0_590_1994)"><path d="M6.00003 12H14V10.6667H6.00003V12ZM2.00003 4V5.33333H14V4H2.00003ZM6.00003 8.66667H14V7.33333H6.00003V8.66667Z" fill="#15418F"></path></g><defs><clipPath id="clip0_590_1994"><rect width="16" height="16" fill="white"></rect></clipPath></defs></symbol><symbol id="featured-icon"><g clip-path="url(#clip0_590_2008)"><path d="M14 2H2.00002C1.26669 2 0.666687 2.6 0.666687 3.33333V12.6667C0.666687 13.4 1.26669 14 2.00002 14H14C14.7334 14 15.3334 13.4 15.3334 12.6667V3.33333C15.3334 2.6 14.7334 2 14 2ZM14 12.6667H2.00002V3.33333H14V12.6667ZM3.33335 6.66667H9.33335V8H3.33335V6.66667ZM3.33335 4.66667H9.33335V6H3.33335V4.66667Z" fill="#15418F"></path></g><defs><clipPath id="clip0_590_2008"><rect width="16" height="16" fill="white"></rect></clipPath></defs></symbol><symbol id="broker-review-stars"><g clip-path="url(#clip0_590_2014)"><path d="M7.33329 5.92671L7.95996 8.00004H9.83996L8.32663 9.08004L8.94663 11.0867L7.33329 9.86004L5.71996 11.0867L6.33996 9.08004L4.82663 8.00004H6.70663L7.33329 5.92671ZM5.71996 6.66671H0.666626L4.77996 9.60671L3.21996 14.6667L7.33329 11.54L11.4533 14.6667L9.88663 9.60671L14 6.66671H8.94663L7.33329 1.33337L5.71996 6.66671ZM14.24 14.6667L13 10.66L15.7866 8.66671H13.4933L11.44 10.1334L12.4133 13.28L14.24 14.6667ZM11.3333 5.33337L10.12 1.33337L9.42663 3.63337L9.93996 5.33337H11.3333Z" fill="#15418F"></path></g><defs><clipPath id="clip0_590_2014"><rect width="16" height="16" fill="white"></rect></clipPath></defs></symbol><symbol id="list-icon"><g clip-path="url(#clip0_600_1533)"><path d="M12.6667 3.33333V12.6667H3.33333V3.33333H12.6667ZM13.4 2H2.6C2.26667 2 2 2.26667 2 2.6V13.4C2 13.6667 2.26667 14 2.6 14H13.4C13.6667 14 14 13.6667 14 13.4V2.6C14 2.26667 13.6667 2 13.4 2ZM7.33333 4.66667H11.3333V6H7.33333V4.66667ZM7.33333 7.33333H11.3333V8.66667H7.33333V7.33333ZM7.33333 10H11.3333V11.3333H7.33333V10ZM4.66667 4.66667H6V6H4.66667V4.66667ZM4.66667 7.33333H6V8.66667H4.66667V7.33333ZM4.66667 10H6V11.3333H4.66667V10Z" fill="#15418F"></path></g><defs><clipPath id="clip0_600_1533"><rect width="16" height="16" fill="white"></rect></clipPath></defs></symbol><symbol id="news-icon"><g clip-path="url(#clip0_600_1546)"><path d="M10.6667 2H3.33333C2.6 2 2 2.6 2 3.33333V12.6667C2 13.4 2.6 14 3.33333 14H12.6667C13.4 14 14 13.4 14 12.6667V5.33333L10.6667 2ZM12.6667 12.6667H3.33333V3.33333H10V6H12.6667V12.6667ZM4.66667 11.3333H11.3333V10H4.66667V11.3333ZM8 4.66667H4.66667V6H8V4.66667ZM4.66667 8.66667H11.3333V7.33333H4.66667V8.66667Z" fill="#15418F"></path></g><defs><clipPath id="clip0_600_1546"><rect width="16" height="16" fill="white"></rect></clipPath></defs></symbol><symbol id="more-news-icon"><g clip-path="url(#clip0_606_1555)"><path d="M14.6667 3.33325V4.66659H12.6667V6.66659H11.3333V4.66659H9.33333V3.33325H11.3333V1.33325H12.6667V3.33325H14.6667ZM12.6667 12.6666H3.33333V3.33325H7.33333V1.99992H3.33333C2.6 1.99992 2 2.59992 2 3.33325V12.6666C2 13.3999 2.6 13.9999 3.33333 13.9999H12.6667C13.4 13.9999 14 13.3999 14 12.6666V8.66659H12.6667V12.6666ZM10 8.66659V11.3333H11.3333V8.66659H10ZM7.33333 11.3333H8.66667V5.99992H7.33333V11.3333ZM6 11.3333V7.33325H4.66667V11.3333H6Z" fill="#15418F"></path></g><defs><clipPath id="clip0_606_1555"><rect width="16" height="16" fill="white"></rect></clipPath></defs></symbol><symbol id="crypto-icon"><g clip-path="url(#clip0_608_1630)"><path d="M10 2.66675C7.05333 2.66675 4.66667 5.05341 4.66667 8.00008C4.66667 10.9467 7.05333 13.3334 10 13.3334C12.9467 13.3334 15.3333 10.9467 15.3333 8.00008C15.3333 5.05341 12.9467 2.66675 10 2.66675ZM10 12.0001C7.79333 12.0001 6 10.2067 6 8.00008C6 5.79341 7.79333 4.00008 10 4.00008C12.2067 4.00008 14 5.79341 14 8.00008C14 10.2067 12.2067 12.0001 10 12.0001ZM2 8.00008C2 6.26008 3.11333 4.78008 4.66667 4.23341V2.84008C2.36667 3.43341 0.666666 5.51341 0.666666 8.00008C0.666666 10.4867 2.36667 12.5667 4.66667 13.1601V11.7667C3.11333 11.2201 2 9.74008 2 8.00008Z" fill="#15418F"></path></g><defs><clipPath id="clip0_608_1630"><rect width="16" height="16" fill="white"></rect></clipPath></defs></symbol><symbol id="crypto-analysis"><g clip-path="url(#clip0_608_1637)"><path d="M13.2534 12.3133C13.5467 11.8466 13.72 11.3066 13.72 10.7199C13.72 9.05992 12.38 7.71992 10.72 7.71992C9.06002 7.71992 7.72002 9.05992 7.72002 10.7199C7.72002 12.3799 9.06002 13.7199 10.7134 13.7199C11.3 13.7199 11.8467 13.5466 12.3067 13.2533L14.3867 15.3333L15.3334 14.3866L13.2534 12.3133ZM10.72 12.3866C9.80002 12.3866 9.05335 11.6399 9.05335 10.7199C9.05335 9.79992 9.80002 9.05325 10.72 9.05325C11.64 9.05325 12.3867 9.79992 12.3867 10.7199C12.3867 11.6399 11.64 12.3866 10.72 12.3866ZM10.48 6.71992C9.98669 6.73325 9.51335 6.83992 9.08002 7.01992L8.71335 6.46659L6.18002 10.5866L4.17335 8.23992L1.75335 12.1133L0.666687 11.3333L4.00002 5.99992L6.00002 8.33325L8.66669 3.99992L10.48 6.71992ZM12.2067 7.05325C11.78 6.86659 11.32 6.75325 10.84 6.72659L14.2534 1.33325L15.3334 2.11992L12.2067 7.05325Z" fill="#15418F"></path></g><defs><clipPath id="clip0_608_1637"><rect width="16" height="16" fill="white"></rect></clipPath></defs></symbol><symbol id="crypto-education"><g clip-path="url(#clip0_608_1644)"><path d="M8 6.00008C9.47333 6.00008 10.6667 4.80675 10.6667 3.33341C10.6667 1.86008 9.47333 0.666748 8 0.666748C6.52667 0.666748 5.33333 1.86008 5.33333 3.33341C5.33333 4.80675 6.52667 6.00008 8 6.00008ZM8 2.00008C8.73333 2.00008 9.33333 2.60008 9.33333 3.33341C9.33333 4.06675 8.73333 4.66675 8 4.66675C7.26667 4.66675 6.66667 4.06675 6.66667 3.33341C6.66667 2.60008 7.26667 2.00008 8 2.00008ZM8 7.70008C6.42667 6.23341 4.32 5.33341 2 5.33341V12.6667C4.32 12.6667 6.42667 13.5667 8 15.0334C9.57333 13.5734 11.68 12.6667 14 12.6667V5.33341C11.68 5.33341 9.57333 6.23341 8 7.70008ZM12.6667 11.4201C10.98 11.6467 9.38 12.2867 8 13.3001C6.62667 12.2867 5.02 11.6401 3.33333 11.4134V6.78008C4.73333 7.03341 6.03333 7.68008 7.09333 8.66675L8 9.52008L8.90667 8.67341C9.96667 7.68675 11.2667 7.04008 12.6667 6.78675V11.4201Z" fill="#15418F"></path></g><defs><clipPath id="clip0_608_1644"><rect width="16" height="16" fill="white"></rect></clipPath></defs></symbol><symbol id="resources-icon"><g clip-path="url(#clip0_608_1720)"><path d="M2 8.66675H3.33333V7.33341H2V8.66675ZM2 11.3334H3.33333V10.0001H2V11.3334ZM2 6.00008H3.33333V4.66675H2V6.00008ZM4.66667 8.66675H14V7.33341H4.66667V8.66675ZM4.66667 11.3334H14V10.0001H4.66667V11.3334ZM4.66667 4.66675V6.00008H14V4.66675H4.66667ZM2 8.66675H3.33333V7.33341H2V8.66675ZM2 11.3334H3.33333V10.0001H2V11.3334ZM2 6.00008H3.33333V4.66675H2V6.00008ZM4.66667 8.66675H14V7.33341H4.66667V8.66675ZM4.66667 11.3334H14V10.0001H4.66667V11.3334ZM4.66667 4.66675V6.00008H14V4.66675H4.66667Z" fill="#15418F"></path></g><defs><clipPath id="clip0_608_1720"><rect width="16" height="16" fill="white"></rect></clipPath></defs></symbol><symbol id="ebooks-icon"><g clip-path="url(#clip0_614_1728)"><path d="M11.3333 2H4.66668C3.93334 2 3.33334 2.6 3.33334 3.33333V14L8.00001 12L12.6667 14V3.33333C12.6667 2.6 12.0667 2 11.3333 2ZM11.3333 12L8.00001 10.5467L4.66668 12V3.33333H11.3333V12Z" fill="#15418F"></path></g><defs><clipPath id="clip0_614_1728"><rect width="16" height="16" fill="white"></rect></clipPath></defs></symbol><symbol id="trading-guides"><g clip-path="url(#clip0_614_1736)"><path d="M6 11.3333H4.66667V6.66667H6V11.3333ZM8.66667 11.3333H7.33333V4.66667H8.66667V11.3333ZM11.3333 11.3333H10V8.66667H11.3333V11.3333ZM12.6667 12.6667H3.33333V3.33333H12.6667V12.6667ZM12.6667 2H3.33333C2.6 2 2 2.6 2 3.33333V12.6667C2 13.4 2.6 14 3.33333 14H12.6667C13.4 14 14 13.4 14 12.6667V3.33333C14 2.6 13.4 2 12.6667 2Z" fill="#15418F"></path></g><defs><clipPath id="clip0_614_1736"><rect width="16" height="16" fill="white"></rect></clipPath></defs></symbol><symbol id="learn-forex"><g clip-path="url(#clip0_614_1742)"><path d="M7.99996 2L0.666626 6L3.33329 7.45333V11.4533L7.99996 14L12.6666 11.4533V7.45333L14 6.72667V11.3333H15.3333V6L7.99996 2ZM12.5466 6L7.99996 8.48L3.45329 6L7.99996 3.52L12.5466 6ZM11.3333 10.66L7.99996 12.48L4.66663 10.66V8.18L7.99996 10L11.3333 8.18V10.66Z" fill="#15418F"></path></g><defs><clipPath id="clip0_614_1742"><rect width="16" height="16" fill="white"></rect></clipPath></defs></symbol></svg>