<svg id="full-brokers-list-svg-sprite" width="0" height="0" style="display:none" xmlns="http://www.w3.org/2000/svg"><symbol id="review-popup-close"><g clip-path="url(#clip0_1055_13108)"><path d="M19 6.41L17.59 5L12 10.59L6.41 5L5 6.41L10.59 12L5 17.59L6.41 19L12 13.41L17.59 19L19 17.59L13.41 12L19 6.41Z" fill="#52616B"></path></g><defs><clipPath id="clip0_1055_13108"><rect width="24" height="24" fill="white"></rect></clipPath></defs></symbol><symbol id="rating-question"><rect width="10" height="10" fill="white" fill-opacity="0.01"></rect><path fill-rule="evenodd" clip-rule="evenodd" d="M1.46484 1.46484C2.44141 0.488276 3.61978 0 5 0C6.38022 0 7.55859 0.488276 8.53516 1.46484C9.51172 2.44141 10 3.61978 10 5C10 6.38022 9.51172 7.55859 8.53516 8.53516C7.55859 9.51172 6.38022 10 5 10C3.61978 10 2.44141 9.51172 1.46484 8.53516C0.488276 7.55859 0 6.38022 0 5C0 3.61978 0.488276 2.44141 1.46484 1.46484ZM5 9.375C3.78906 9.375 2.75717 8.94857 1.9043 8.0957C1.05143 7.24283 0.625 6.21094 0.625 5C0.625 3.78906 1.05143 2.75717 1.9043 1.9043C2.75717 1.05143 3.78906 0.625 5 0.625C6.21094 0.625 7.24283 1.05143 8.0957 1.9043C8.94857 2.75717 9.375 3.78906 9.375 5C9.375 6.21094 8.94857 7.24283 8.0957 8.0957C7.24283 8.94857 6.21094 9.375 5 9.375ZM4.62565 8.16883C4.51714 8.05916 4.46289 7.92641 4.46289 7.77056C4.46289 7.61472 4.51714 7.47908 4.62565 7.36364C4.73416 7.2482 4.86165 7.19048 5.00814 7.19048C5.15462 7.19048 5.27941 7.2482 5.38249 7.36364C5.48557 7.47908 5.53711 7.61183 5.53711 7.7619C5.53711 7.92352 5.48557 8.05916 5.38249 8.16883C5.27941 8.2785 5.15462 8.33333 5.00814 8.33333C4.86165 8.33333 4.73416 8.2785 4.62565 8.16883ZM3.55143 2.26407C3.97461 1.8658 4.45746 1.66667 5 1.66667C5.57509 1.66667 6.06608 1.84271 6.47298 2.19481C6.87989 2.5469 7.08333 3.05194 7.08333 3.70996C7.08333 4.54113 6.70356 5.17604 5.94401 5.61472C5.84635 5.67244 5.75141 5.75325 5.65918 5.85714C5.56695 5.96104 5.52083 6.04185 5.52083 6.09957C5.52083 6.24964 5.47201 6.37951 5.37435 6.48918C5.27669 6.59885 5.15462 6.65368 5.00814 6.65368C4.86165 6.65368 4.73687 6.59885 4.63379 6.48918C4.53071 6.37951 4.47917 6.24964 4.47917 6.09957C4.47917 5.78788 4.58225 5.50217 4.78841 5.24242C4.99458 4.98268 5.21701 4.78355 5.45573 4.64502C5.84636 4.41414 6.04167 4.10246 6.04167 3.70996C6.04167 3.08658 5.69445 2.77489 5 2.77489C4.72873 2.77489 4.48731 2.87301 4.27572 3.06926C4.06413 3.26551 3.95833 3.54257 3.95833 3.90043C3.95833 4.05051 3.90951 4.18037 3.81185 4.29004C3.71419 4.39971 3.59212 4.45455 3.44564 4.45455C3.29915 4.45455 3.17437 4.39971 3.07129 4.29004C2.96821 4.18037 2.91667 4.05051 2.91667 3.90043C2.91667 3.20779 3.12825 2.66234 3.55143 2.26407Z" fill="#9BADBA"></path></symbol><symbol id="rating-full-star"><path d="M9.46875 14.4844L3.60938 18L5.15625 11.3438L0 6.84375L6.79688 6.28125L9.46875 0L12.1406 6.28125L18.9375 6.84375L13.7812 11.3438L15.3281 18L9.46875 14.4844Z" fill="#FFC619"></path></symbol><symbol id="rating-half-star"><path d="M18.9375 6.84375L13.7812 11.3438L15.3281 18L9.46875 14.4844L3.60938 18L5.15625 11.3438L0 6.84375L6.79688 6.28125L9.46875 0L12.1406 6.28125L18.9375 6.84375ZM10.2656 13.1719L13.0781 14.8594L12.3281 11.6719L12.0938 10.7812L12.7969 10.2188L15.2812 8.0625L12 7.78125L11.1094 7.6875L10.7344 6.84375L9.46875 3.84375V12.7031L10.2656 13.1719Z" fill="#FFC619"></path></symbol><symbol id="rating-empty-star"><path d="M18.9375 6.84375L13.7812 11.3438L15.3281 18L9.46875 14.4844L3.60938 18L5.15625 11.3438L0 6.84375L6.79688 6.28125L9.46875 0L12.1406 6.28125L18.9375 6.84375ZM10.2656 13.1719L13.0781 14.8594L12.3281 11.6719L12.0938 10.7812L12.7969 10.2188L15.2812 8.0625L12 7.78125L11.1094 7.6875L10.7344 6.84375L9.46875 3.84375L8.20312 6.84375L7.82812 7.6875L6.9375 7.78125L3.65625 8.0625L6.14062 10.2188L6.84375 10.7812L6.60938 11.6719L5.85938 14.8594L8.67188 13.1719L9.46875 12.7031L10.2656 13.1719Z" fill="#FFC619"></path></symbol><symbol id="chevron-right-blue"><g id="chevron-right"><path id="Vector" d="M15.1052 11.3948C15.4399 11.7296 15.4399 12.2731 15.1052 12.6078L9.96402 17.749C9.62931 18.0837 9.08574 18.0837 8.75103 17.749C8.41632 17.4143 8.41632 16.8707 8.75103 16.536L13.287 12L8.75371 7.46402C8.419 7.12931 8.419 6.58574 8.75371 6.25103C9.08842 5.91632 9.63199 5.91632 9.9667 6.25103L15.1078 11.3922L15.1052 11.3948Z" fill="#15418F"></path></g></symbol><symbol id="search"><g clip-path="url(#clip0_943_493)"><path d="M12.5816 6.62415C12.5816 7.9388 12.1548 9.1532 11.4359 10.1385L15.0619 13.7674C15.42 14.1254 15.42 14.7068 15.0619 15.0648C14.7039 15.4229 14.1225 15.4229 13.7645 15.0648L10.1384 11.4359C9.15317 12.1577 7.93877 12.5816 6.62412 12.5816C3.33319 12.5816 0.666656 9.91507 0.666656 6.62415C0.666656 3.33322 3.33319 0.666687 6.62412 0.666687C9.91504 0.666687 12.5816 3.33322 12.5816 6.62415ZM6.62412 10.7485C7.16574 10.7485 7.70206 10.6419 8.20246 10.4346C8.70285 10.2273 9.15752 9.92352 9.54051 9.54054C9.92349 9.15755 10.2273 8.70288 10.4346 8.20249C10.6418 7.70209 10.7485 7.16577 10.7485 6.62415C10.7485 6.08252 10.6418 5.5462 10.4346 5.04581C10.2273 4.54541 9.92349 4.09074 9.54051 3.70776C9.15752 3.32477 8.70285 3.02097 8.20246 2.8137C7.70206 2.60643 7.16574 2.49975 6.62412 2.49975C6.08249 2.49975 5.54617 2.60643 5.04578 2.8137C4.54538 3.02097 4.09071 3.32477 3.70773 3.70776C3.32474 4.09074 3.02094 4.54541 2.81367 5.04581C2.6064 5.5462 2.49972 6.08252 2.49972 6.62415C2.49972 7.16577 2.6064 7.70209 2.81367 8.20249C3.02094 8.70288 3.32474 9.15755 3.70773 9.54054C4.09071 9.92352 4.54538 10.2273 5.04578 10.4346C5.54617 10.6419 6.08249 10.7485 6.62412 10.7485Z" fill="#52616B"></path></g><defs><clipPath id="clip0_943_493"><rect width="16" height="16" fill="white"></rect></clipPath></defs></symbol><symbol id="info"><g id="info" clip-path="url(#clip0_703_1289)"><path id="Vector" d="M11.8325 0.00123845C17.9704 -0.113019 23.2532 4.46328 23.928 10.6738C24.6779 17.5863 19.5395 23.2105 13.5985 23.9065C6.10494 24.786 0.625318 19.2596 0.052709 13.0897C-0.572502 6.36806 4.45173 0.187658 11.8325 0.00123845ZM12.3285 21.7417C17.3422 21.7627 22.3214 16.985 21.7037 10.9519C21.2017 6.05386 16.8042 1.90151 11.3095 2.26684C6.38748 2.59457 1.77054 6.87621 2.28002 12.9634C2.6783 17.7156 7.00368 21.9657 12.3285 21.7417Z" fill="#15418F"></path><path id="Vector_2" d="M13.4827 13.6748C13.4827 14.3257 13.4857 14.9767 13.4797 15.6277C13.4797 15.7269 13.5067 15.76 13.6044 15.763C13.7291 15.766 13.8539 15.7825 13.9771 15.8005C14.5753 15.8922 14.96 16.3117 14.9645 16.871C14.9691 17.4377 14.5843 17.8692 13.9816 17.9684C13.8208 17.9955 13.66 18.0075 13.4962 18.0075C12.4817 18.0045 11.4688 18.0045 10.4543 18.0075C10.2905 18.0075 10.1282 17.9925 9.96887 17.9609C9.38423 17.8481 9.01902 17.4182 9.03105 16.8649C9.04307 16.2921 9.42782 15.8892 10.044 15.796C10.3867 15.7434 10.7308 15.7645 11.075 15.763C11.1967 15.763 11.2539 15.7389 11.2524 15.5991C11.2463 14.7031 11.2463 13.8086 11.2493 12.9125C11.2493 12.7817 11.2058 12.7412 11.075 12.7397C10.7308 12.7366 10.3882 12.7652 10.044 12.7111C9.42181 12.6134 9.02804 12.1969 9.02955 11.6226C9.02955 11.0348 9.42331 10.6154 10.059 10.5327C10.6452 10.456 11.2343 10.5116 11.822 10.4981C12.0218 10.4936 12.2202 10.5011 12.4201 10.5267C13.122 10.6199 13.4601 11.0514 13.4872 11.7564C13.5112 12.3939 13.4917 13.0343 13.4917 13.6718C13.4872 13.6718 13.4827 13.6718 13.4782 13.6718L13.4827 13.6748Z" fill="#15418F"></path><path id="Vector_3" d="M11.9877 8.95266C11.1413 8.94815 10.5295 8.32424 10.534 7.47032C10.5385 6.62692 11.1654 6.00753 12.0208 6.02407C12.8702 6.0406 13.4806 6.58332 13.4776 7.4613C13.4746 8.34379 12.8792 8.95266 11.9862 8.95266H11.9877Z" fill="#15418F"></path></g><defs><clipPath id="clip0_703_1289"><rect width="24" height="24" fill="white"></rect></clipPath></defs></symbol><symbol id="scroll-table-hand"><g id="slide-side"><path id="Vector" d="M9.78344 10.8722C9.81914 10.7991 9.80129 10.7238 9.80129 10.6517C9.80272 8.65459 9.80129 6.6575 9.80307 4.66041C9.80379 3.86533 10.3214 3.21485 11.0831 3.04308C12.1251 2.80825 13.1089 3.56187 13.1157 4.61093C13.1232 5.78926 13.1175 6.96793 13.1178 8.14661C13.1178 8.28597 13.1855 8.32999 13.3209 8.27865C14.0395 8.00585 14.8562 8.25287 15.2892 8.8828C15.3635 8.99081 15.4081 9.01171 15.532 8.93854C16.3191 8.47411 17.3282 8.72357 17.7987 9.49879C17.8726 9.62038 17.919 9.62004 18.036 9.55628C19.1312 8.9598 20.488 9.72595 20.4923 10.9506C20.5002 13.209 20.5052 15.4674 20.4912 17.7258C20.4777 19.941 18.6268 21.8412 16.3573 21.9576C15.2053 22.0168 14.0488 22.0106 12.8969 21.9601C11.0721 21.8799 9.50501 20.7023 8.94172 19.0045C8.14534 16.6043 7.36431 14.1992 6.58256 11.7945C6.30127 10.9283 6.76104 10.0434 7.62275 9.7601C8.49481 9.47335 9.40328 9.90887 9.72775 10.7677C9.74061 10.8022 9.73525 10.8496 9.7838 10.8722H9.78344ZM10.6601 9.14411C10.6601 10.0092 10.6601 10.8743 10.6601 11.7391C10.6601 12.3836 10.6623 13.0278 10.6584 13.6724C10.6569 13.9459 10.4531 14.1375 10.1975 14.1121C9.97227 14.0895 9.8609 13.9466 9.79629 13.7463C9.51251 12.8665 9.22479 11.9882 8.93601 11.1102C8.78252 10.6433 8.34988 10.4092 7.90939 10.5489C7.47354 10.6876 7.2615 11.1189 7.41036 11.5753C8.18461 13.9459 8.956 16.3175 9.73775 18.686C10.2275 20.1696 11.5558 21.1207 13.1453 21.135C14.1148 21.1437 15.0843 21.1437 16.0538 21.135C18.0596 21.1162 19.6335 19.5686 19.6374 17.6101C19.642 15.4214 19.6385 13.2327 19.6385 11.044C19.6385 11.0032 19.6392 10.9625 19.6356 10.922C19.5931 10.4196 19.1126 10.0866 18.6193 10.2179C18.2756 10.3092 18.0378 10.6172 18.0368 10.9855C18.0339 11.7171 18.0368 12.4484 18.035 13.1801C18.0343 13.4425 17.8793 13.6177 17.6434 13.6348C17.3721 13.6539 17.1801 13.4707 17.1797 13.1815C17.1776 12.2352 17.1815 11.2889 17.1776 10.3426C17.1758 9.85696 16.7824 9.50889 16.2951 9.5507C15.8882 9.58554 15.5798 9.92211 15.5773 10.3475C15.573 11.0558 15.5784 11.7642 15.5748 12.4725C15.5734 12.7766 15.3335 12.9648 15.0436 12.9003C14.8395 12.8547 14.7195 12.6885 14.7192 12.4401C14.7181 11.5635 14.7209 10.6869 14.7177 9.81027C14.7163 9.35942 14.3725 9.01415 13.9296 9.00788C13.4905 9.00161 13.1364 9.342 13.1182 9.79076C13.1135 9.90678 13.1171 10.0228 13.1171 10.1392C13.1171 10.7952 13.1193 11.4513 13.1153 12.1073C13.1139 12.3565 12.934 12.5324 12.6952 12.5359C12.4592 12.5394 12.2761 12.3634 12.2608 12.1167C12.2572 12.0589 12.2593 12.0007 12.2593 11.9425C12.2593 9.80016 12.2593 7.65813 12.2593 5.51575C12.2593 5.20811 12.2658 4.90011 12.2575 4.59281C12.2418 4.02142 11.6157 3.66116 11.0992 3.92665C10.7819 4.08971 10.6584 4.36147 10.6591 4.70396C10.6616 6.18436 10.6601 7.66475 10.6601 9.14515V9.14411Z" fill="#15418F"></path><path id="Vector_2" d="M16.9461 3.80406C16.8346 3.70288 16.7283 3.6089 16.6252 3.51184C16.4366 3.33418 16.4151 3.10027 16.5699 2.93255C16.7297 2.76003 16.9782 2.76072 17.1781 2.94044C17.5747 3.29679 17.9699 3.65486 18.3637 4.01396C18.5435 4.1779 18.5452 4.29966 18.37 4.45914C17.9674 4.82613 17.5645 5.19242 17.1583 5.55598C17.001 5.69694 16.8202 5.71409 16.6586 5.61737C16.5077 5.52717 16.4348 5.35362 16.4784 5.18762C16.5041 5.08953 16.5682 5.01648 16.6431 4.94994C16.7417 4.86282 16.8378 4.77331 16.9381 4.68208C16.8807 4.63166 16.8261 4.65086 16.7772 4.65086C16.179 4.64949 15.5807 4.65532 14.9828 4.64606C14.8318 4.64366 14.7871 4.68791 14.7653 4.83127C14.7189 5.13755 14.6108 5.42839 14.4648 5.70449C14.3233 5.97201 14.0992 6.06564 13.8634 5.95349C13.6336 5.84442 13.5755 5.60503 13.7131 5.33613C14.393 4.00984 13.7286 2.4198 12.2973 1.94787C11.3535 1.63644 10.3125 1.90431 9.64989 2.62902C8.9802 3.36162 8.82817 4.40186 9.26243 5.28503C9.28284 5.32619 9.30642 5.36597 9.32507 5.40747C9.42114 5.62252 9.34337 5.85265 9.14208 5.95109C8.93409 6.05295 8.70042 5.98744 8.58112 5.78303C8.40622 5.48258 8.28692 5.1595 8.23519 4.81789C8.21443 4.68173 8.16234 4.64435 8.02299 4.64641C7.43071 4.65464 6.83844 4.64915 6.24617 4.65086C6.19092 4.65086 6.13109 4.63269 6.06282 4.6807C6.17297 4.7812 6.27995 4.87517 6.38271 4.97326C6.57239 5.15435 6.58823 5.38483 6.42635 5.55221C6.26411 5.71992 6.02516 5.72061 5.83126 5.54603C5.42585 5.18214 5.02291 4.81584 4.62067 4.44817C4.45844 4.29966 4.45985 4.17756 4.62454 4.02699C5.02678 3.65966 5.42972 3.29336 5.83548 2.92946C6.02587 2.75866 6.27256 2.76278 6.43092 2.93084C6.58541 3.09512 6.57134 3.3232 6.39151 3.49743C6.28558 3.59998 6.17438 3.69739 6.06247 3.79994C6.11877 3.84658 6.16734 3.82978 6.21098 3.82978C6.82084 3.83115 7.43071 3.82703 8.04058 3.83424C8.16692 3.83561 8.2095 3.7972 8.23167 3.67887C8.49068 2.30422 9.55276 1.28146 10.959 1.04618C12.7369 0.748476 14.4497 1.92146 14.7688 3.66241C14.7938 3.79925 14.8424 3.83595 14.98 3.83424C15.5723 3.82703 16.1645 3.83184 16.7568 3.83012C16.8124 3.83012 16.8715 3.84658 16.9461 3.80371V3.80406Z" fill="#15418F"></path></g></symbol><symbol id="scroll-table-double-arrow"><g clip-path="url(#clip0_264_608)"><path d="M11.6805 11.4703C12.0152 11.805 12.0152 12.3485 11.6805 12.6832L6.53935 17.8244C6.20464 18.1591 5.66107 18.1591 5.32636 17.8244C4.99166 17.4897 4.99166 16.9461 5.32636 16.6114L9.86235 12.0754L5.32904 7.53943C4.99433 7.20472 4.99433 6.66115 5.32904 6.32644C5.66375 5.99173 6.20732 5.99173 6.54203 6.32644L11.6832 11.4676L11.6805 11.4703Z" fill="#52616B"></path><path d="M18.6805 11.4703C19.0152 11.805 19.0152 12.3485 18.6805 12.6832L13.5394 17.8244C13.2046 18.1591 12.6611 18.1591 12.3264 17.8244C11.9917 17.4897 11.9917 16.9461 12.3264 16.6114L16.8623 12.0754L12.329 7.53943C11.9943 7.20472 11.9943 6.66115 12.329 6.32644C12.6638 5.99173 13.2073 5.99173 13.542 6.32644L18.6832 11.4676L18.6805 11.4703Z" fill="#52616B"></path></g><defs><clipPath id="clip0_264_608"><rect width="24" height="24" fill="white" transform="translate(24 24) rotate(-180)"></rect></clipPath></defs></symbol></svg>