<svg width="15" height="15" viewBox="0 0 15 15" fill="none" xmlns="http://www.w3.org/2000/svg">
    <path d="M6.54917 0.927036C6.84852 0.00572556 8.15193 0.00572604 8.45129 0.927037L9.52085 4.21883C9.65473 4.63086 10.0387 4.90982 10.4719 4.90982H13.9331C14.9018 4.90982 15.3046 6.14943 14.5209 6.71883L11.7207 8.75328C11.3702 9.00792 11.2236 9.45929 11.3575 9.87131L12.427 13.1631C12.7264 14.0844 11.6719 14.8505 10.8882 14.2811L8.08801 12.2467C7.73753 11.9921 7.26293 11.9921 6.91244 12.2467L4.11227 14.2811C3.32856 14.8505 2.27408 14.0844 2.57343 13.1631L3.643 9.87131C3.77688 9.45929 3.63022 9.00792 3.27973 8.75328L0.479561 6.71883C-0.304152 6.14943 0.0986233 4.90982 1.06735 4.90982H4.52855C4.96177 4.90982 5.34573 4.63086 5.4796 4.21883L6.54917 0.927036Z" fill="#10B981"/>
</svg>
