<svg width="571" height="120" viewBox="0 0 571 120" fill="none" xmlns="http://www.w3.org/2000/svg">
    <path d="M51.8584 120C51.8584 120 0 104.602 0 29.0266V0H103.894V29.0266C103.717 101.947 51.8584 120 51.8584 120Z" fill="#51AF3D"/>
    <path d="M81.7699 29.2037H40V53.2745H81.7699V60.5311C81.7699 72.7435 78.4071 82.478 59.823 82.655H40V114.336C46.9027 118.584 51.8584 120 51.8584 120C51.8584 120 103.717 101.947 103.717 29.0267V7.25684C103.717 19.2922 98.4071 29.0267 81.7699 29.2037Z" fill="#0F5431"/>
    <path d="M132.566 82.4783V30.7969H164.248V34.6907C164.248 38.5845 161.062 41.7703 157.168 41.7703H145.133V52.5668H160.885V56.2835C160.885 60.1773 157.699 63.5402 153.628 63.5402H144.956V82.6553H132.566V82.4783Z" fill="black"/>
    <path d="M184.248 54.1597H189.734C191.858 54.1597 193.451 53.6287 194.513 52.5668C195.752 51.5048 196.283 49.9119 196.283 47.788C196.283 44.9561 195.221 43.1863 193.274 42.3013C192.212 41.7703 190.619 41.5933 188.496 41.5933H184.248V54.1597ZM171.504 82.4783V30.7969H189.558C194.159 30.7969 197.522 31.1509 199.646 32.0358C202.655 33.2748 204.956 35.0446 206.726 37.6995C208.496 40.3543 209.204 43.3633 209.204 47.0801C209.204 49.9119 208.496 52.7437 207.257 55.3986C205.841 58.0535 204.071 60.0004 201.593 61.2394V61.4163C202.124 62.1243 202.655 63.0092 203.54 64.6021L213.628 82.6553H199.469L190.265 65.1331H184.248V82.6553H171.504V82.4783Z" fill="black"/>
    <path d="M219.115 82.4783V30.7969H251.504V41.5933H231.858V50.9738H247.61V61.9473H231.858V71.6818H252.566V82.4783H219.115Z" fill="black"/>
    <path d="M260.708 82.4783V30.7969H293.097V41.5933H273.274V50.9738H289.203V61.9473H273.274V71.6818H294.159V82.4783H260.708Z" fill="black"/>
    <path d="M314.867 71.6818H320C324.425 71.6818 327.964 70.4428 330.442 67.788C332.92 65.1331 334.159 61.4163 334.159 56.6375C334.159 51.8588 332.92 48.142 330.442 45.4871C327.964 43.0092 324.425 41.5933 320.177 41.5933H315.044V71.6818H314.867ZM302.301 82.4783V30.7969H320.708C328.849 30.7969 335.398 33.0977 340.177 37.6995C344.956 42.3012 347.434 48.4959 347.434 56.6375C347.434 64.7791 344.956 71.1508 340.177 75.7526C335.398 80.3543 328.849 82.6553 320.708 82.6553H302.301V82.4783Z" fill="black"/>
    <path d="M365.84 56.2835C365.84 60.7083 367.079 64.4252 369.734 67.4341C372.389 70.4429 375.752 71.8588 379.822 71.8588C383.893 71.8588 387.256 70.4429 389.911 67.4341C392.566 64.4252 393.805 60.8853 393.805 56.2835C393.805 52.0358 392.566 48.4959 389.911 45.6641C387.256 42.8322 383.893 41.4163 379.822 41.4163C375.752 41.4163 372.389 42.8322 369.734 45.6641C367.079 48.4959 365.84 52.0358 365.84 56.2835ZM352.743 56.2835C352.743 48.6729 355.221 42.4783 360.353 37.3456C365.486 32.3898 371.858 29.7349 379.822 29.7349C387.787 29.7349 394.159 32.2128 399.291 37.3456C404.424 42.4783 406.902 48.6729 406.902 56.2835C406.902 64.0712 404.424 70.4429 399.291 75.5756C394.159 80.7084 387.787 83.3633 379.822 83.3633C371.858 83.3633 365.486 80.7084 360.353 75.5756C355.221 70.4429 352.743 64.0712 352.743 56.2835Z" fill="black"/>
    <path d="M412.92 82.4783L417.168 30.7969H430.973L438.584 52.5668L441.239 61.0623H441.416C442.3 57.5225 443.185 54.6907 444.07 52.5668L451.681 30.7969H465.486L469.734 82.4783H456.991L455.398 59.1155C455.221 57.8765 455.221 56.6376 455.221 55.2216C455.221 53.8057 455.221 52.5668 455.221 51.6818V50.4429H455.044C453.805 53.9827 452.92 56.9916 452.212 59.1155L446.725 74.1597H435.929L430.442 59.1155L427.61 50.4429H427.433C427.61 53.6287 427.61 56.4606 427.433 59.1155L425.84 82.4783H412.92Z" fill="black"/>
    <path d="M489.734 82.3011C489.38 80.1772 489.203 78.4073 489.203 76.8144C489.203 73.8055 489.734 71.1506 490.796 68.6727C491.858 66.1949 493.274 64.071 494.867 62.478C496.459 60.8851 498.229 59.2922 500.176 57.8763C502.123 56.4604 503.893 55.2215 505.486 54.1595C507.079 53.0976 508.495 52.0356 509.557 50.9736C510.619 49.7347 511.15 48.6728 511.15 47.6108C511.15 46.0179 510.619 44.7789 509.557 43.894C508.495 43.009 507.256 42.6551 505.663 42.6551C504.07 42.6551 502.654 43.186 501.415 44.248C500.176 45.3099 498.937 46.5489 498.229 48.1418L489.026 41.9471C490.619 38.7613 493.097 36.1064 496.106 33.9825C499.114 31.8586 502.831 30.9736 507.079 30.9736C511.681 30.9736 515.752 32.3895 519.291 35.0444C522.831 37.6993 524.424 41.5931 524.424 46.5488C524.424 49.5577 523.716 52.2126 522.3 54.5134C520.884 56.9913 519.114 58.9383 517.167 60.5312C515.044 62.1241 513.097 63.5401 510.973 64.779C508.849 66.018 507.079 67.2568 505.663 68.4958C504.07 69.7347 503.362 70.9737 503.185 72.0356H525.132V82.6551H489.734V82.3011Z" fill="#51AF3D"/>
    <path d="M530.088 69.9117V62.3011L549.734 31.3276H564.956V59.4693H570.973V69.7347H564.956V81.9471H552.743V69.7347H530.088V69.9117ZM542.655 59.6462H552.566V48.3187L552.92 42.6551H552.743C552.035 44.779 551.15 46.5489 550.265 47.9649L542.655 59.6462Z" fill="#51AF3D"/>
</svg>
