<?xml version="1.0" encoding="UTF-8"?>
<svg xmlns="http://www.w3.org/2000/svg" viewBox="0 0 512 512">
  <defs>
    <linearGradient id="g1" x1="50%" x2="50%" y1="0%" y2="100%">
      <stop offset="0%" stop-color="#8E2DE2" />
      <stop offset="100%" stop-color="#4A00E0" />
    </linearGradient>
    <linearGradient id="g2" x1="0%" x2="100%" y1="0%" y2="100%">
      <stop offset="0%" stop-color="#F8FFAE" />
      <stop offset="100%" stop-color="#43C6AC" />
    </linearGradient>
    <filter id="shadow" x="-20%" y="-20%" width="140%" height="140%">
      <feDropShadow dx="0" dy="12" stdDeviation="18" flood-color="#1a1133" flood-opacity="0.25" />
    </filter>
  </defs>
  <g filter="url(#shadow)">
    <path fill="url(#g1)" d="M256 24c12.1 0 23.7 6.7 30.2 17.7l194.5 332.4c5.1 8.7 5.3 19.5.5 28.4s-14 14.5-24 14.5H54.8c-10 0-19.2-5.6-24-14.5s-4.6-19.7.5-28.4L226 41.7C232.3 30.7 243.9 24 256 24z" />
    <path fill="url(#g2)" d="M256 92c-8.6 0-16.6 4.6-20.9 12.1l-120 206c-4.3 7.4-4.3 16.6 0 24s12.2 12 20.9 12h120c8.6 0 16.6-4.6 20.9-12l120-206c4.3-7.4 4.3-16.6 0-24s-12.2-12.1-20.9-12.1h-120z" />
    <circle cx="256" cy="256" r="72" fill="#ffffff" opacity="0.92" />
    <path fill="#4A00E0" d="M256 196c-7.4 0-13.4 6-13.4 13.4v64.5l-32.3-23.3c-5.9-4.3-14.2-3-18.5 2.9-4.3 5.9-3 14.2 2.9 18.5l53.3 38.5c2.4 1.7 5.1 2.6 8 2.6s5.6-.9 8-2.6l53.3-38.5c5.9-4.3 7.2-12.6 2.9-18.5-4.3-5.9-12.6-7.2-18.5-2.9l-32.3 23.3v-64.5c.1-7.4-5.9-13.4-13.4-13.4z" />
  </g>
</svg>
